<?xml version="1.0" encoding="utf-8"?>
<!-- Generator: Adobe Illustrator 19.0.0, SVG Export Plug-In . SVG Version: 6.00 Build 0)  -->
<svg version="1.1" id="Capa_1" xmlns="http://www.w3.org/2000/svg" xmlns:xlink="http://www.w3.org/1999/xlink" x="0px" y="0px"
	 viewBox="37 95.1 374.4 111.9" style="enable-background:new 37 95.1 374.4 111.9;" xml:space="preserve">
<style type="text/css">
	.st0{fill:#C9CDCB;}
	.st1{fill:#A0A8A8;}
	.st2{fill:#8E9494;}
	.st3{fill:#303030;}
	.st4{fill:#B65151;}
	.st5{fill:#9B4A4A;}
	.st6{fill:#CB6769;}
	.st7{fill:#FFFFFF;stroke:#000000;stroke-miterlimit:10;}
</style>
<polygon class="st0" points="131.2,95.1 82.8,123.1 104.3,135.5 131.2,119.9 158.2,135.5 179.7,123.1 "/>
<polygon class="st1" points="104.3,166.6 104.3,135.5 82.8,123.1 82.8,179 131.2,207 131.2,182.2 "/>
<polygon class="st2" points="131.2,182.2 131.2,207 179.7,179 158.2,166.6 "/>
<g>
	<g>
		<path class="st3" d="M39.4,136.1h4.8v15.5c0,2.9,0.2,4.9,0.5,6.1c0.3,1.2,0.9,2.2,1.8,3c0.9,0.8,2.1,1.3,3.7,1.6s3.7,0.5,6.6,0.5
			c3.7,0,6.5-0.3,8.5-0.8c2-0.6,3.6-1.5,4.6-2.8c0.6-0.8,1.1-1.7,1.3-2.9c0.2-1.2,0.4-2.9,0.4-5.1v-15.1h4.8v30.5h-4.8v-4.6h-0.3
			c-1.2,2-2.9,3.3-4.9,3.9c-2,0.7-5.4,1-10.2,1c-3.7,0-6.7-0.2-8.8-0.7c-2.1-0.5-3.8-1.2-5-2.3c-1.1-0.9-1.9-2.2-2.3-3.9
			c-0.4-1.7-0.7-4.1-0.7-7.2C39.4,153,39.4,136.1,39.4,136.1z"/>
	</g>
</g>
<g>
	<g>
		<path class="st3" d="M191.5,137.1c4.8,0,8.3,0.1,10.6,0.4c2.3,0.3,4.1,0.8,5.4,1.6c1.9,1.2,3.3,2.8,4.2,4.9c0.9,2.1,1.3,5,1.3,8.7
			c0,4.1-0.5,7.2-1.5,9.3c-0.8,1.6-1.8,2.9-3,3.8s-2.9,1.6-4.9,2c-2,0.4-5.3,0.6-9.8,0.6c-4.3,0-7.6-0.1-9.8-0.4
			c-2.2-0.3-4-0.8-5.4-1.6c-2-1.1-3.5-2.7-4.4-4.8c-0.9-2.1-1.3-5.1-1.3-9c0-4.3,0.6-7.5,1.9-9.7c1.3-2.3,3.1-3.8,5.3-4.6
			C182.2,137.5,186.1,137.1,191.5,137.1z M192.2,141.3c-3.2,0-5.6,0.1-7.2,0.4s-2.9,0.7-3.9,1.3c-1.1,0.7-2,1.9-2.5,3.5
			s-0.8,3.7-0.8,6.4c0,3.1,0.3,5.4,1,6.9c0.7,1.5,1.9,2.6,3.5,3.3c1.8,0.7,5.4,1.1,10.8,1.1c3.5,0,6-0.1,7.7-0.4
			c1.6-0.3,2.9-0.7,3.9-1.4c1.1-0.8,1.8-1.9,2.3-3.4c0.5-1.5,0.7-3.6,0.7-6.3c0-3.2-0.4-5.6-1.1-7.1c-0.8-1.7-2.2-2.8-4.1-3.3
			C200.7,141.6,197.3,141.3,192.2,141.3z"/>
		<path class="st3" d="M217.5,137.4h4.8v4.6h0.4c1-2,2.6-3.3,4.7-4c2.1-0.7,5.7-1,10.7-1c4.4,0,7.6,0.2,9.7,0.7
			c2.1,0.5,3.8,1.4,5,2.6c0.9,1,1.6,2.3,2,3.8c0.4,1.5,0.6,3.7,0.6,6.5V168h-4.8v-15.2c0-2.7-0.1-4.7-0.3-5.9
			c-0.2-1.2-0.7-2.2-1.4-3c-0.8-0.9-2.1-1.6-3.7-2c-1.7-0.4-4.2-0.6-7.5-0.6c-3.7,0-6.6,0.3-8.7,0.8c-2.1,0.5-3.6,1.4-4.7,2.7
			c-0.7,0.9-1.2,1.9-1.4,3c-0.2,1.1-0.3,3.1-0.3,6V168h-4.8L217.5,137.4L217.5,137.4z"/>
		<path class="st3" d="M265,129.9h4.8v7.6h21.4v4.1h-21.4v13.3c0,2.9,0.1,4.7,0.2,5.3c0.1,0.6,0.4,1.3,0.9,1.9
			c0.6,0.8,1.5,1.3,2.7,1.6s3,0.5,5.3,0.5c2.2,0,3.7-0.1,4.7-0.4s1.8-0.8,2.3-1.6c0.4-0.6,0.6-1.2,0.7-2c0.1-0.8,0.2-2.1,0.2-3.9
			v-1.9h4.8v1.9c0,2.3-0.1,4.1-0.3,5.3c-0.2,1.2-0.6,2.3-1.3,3.2c-0.9,1.3-2.2,2.3-4,2.9c-1.8,0.6-4.3,0.9-7.5,0.9
			c-3.3,0-5.9-0.3-7.7-0.8c-1.9-0.5-3.2-1.4-4.1-2.6c-0.7-0.9-1.1-1.9-1.4-3.1c-0.2-1.2-0.4-3-0.4-5.4v-14.9h-7.5v-4.1h7.5V129.9z"
			/>
		<path class="st3" d="M301.2,146.6h-5c0-0.6-0.1-1-0.1-1.3c0-3.2,1.2-5.4,3.6-6.5c2.4-1.2,6.9-1.7,13.5-1.7c5.2,0,8.9,0.2,11.2,0.7
			c2.3,0.5,4.1,1.4,5.3,2.7c1.1,1.1,1.8,2.3,2.1,3.8c0.3,1.5,0.5,4,0.5,7.7V168h-4.8l0.1-3.6h-0.3c-1.2,1.7-2.6,2.8-4.3,3.2
			c-1.7,0.5-4.9,0.7-9.5,0.7c-5.3,0-9-0.1-11.1-0.4c-2.1-0.3-3.7-0.8-4.7-1.6c-1.1-0.8-1.8-1.7-2.2-2.8c-0.4-1.1-0.6-2.6-0.6-4.5
			c0-2.4,0.3-4.2,0.9-5.4c0.6-1.3,1.7-2.2,3.2-2.8c1.6-0.7,5.4-1.1,11.4-1.1c6.3,0,10.4,0.2,12.3,0.6s3.4,1.3,4.5,2.7h0.4v-3.3
			c0-2.7-0.5-4.6-1.4-5.8c-0.9-1.1-2.2-1.8-3.9-2.1c-1.7-0.4-4.6-0.6-8.6-0.6c-5.2,0-8.6,0.3-10.1,0.9c-1.5,0.6-2.3,1.9-2.3,4
			C301.2,146.3,301.2,146.4,301.2,146.6z M313.6,154c-4,0-6.7,0.1-8.3,0.2c-1.6,0.1-2.7,0.4-3.4,0.8c-1.3,0.8-1.9,2.1-1.9,4.1
			c0,2,0.8,3.3,2.3,4.1c1.2,0.6,5.3,0.9,12.4,0.9c5.1,0,8.5-0.3,10.2-1s2.5-2,2.5-4.1c0-2-0.9-3.3-2.8-4
			C322.6,154.4,319,154,313.6,154z"/>
		<path class="st3" d="M370.1,156.9h4.9c-0.1,3.7-0.9,6.4-2.5,8.1c-1.2,1.2-2.8,2.1-4.8,2.6c-2,0.5-5,0.7-8.9,0.7
			c-5.3,0-9.2-0.2-11.7-0.6s-4.5-1.1-5.8-2.1c-3-2.3-4.5-6.6-4.5-12.9c0-4.5,0.6-7.8,1.9-10.1c1.3-2.2,3.1-3.7,5.5-4.5
			c2.4-0.8,6.3-1.2,11.7-1.2c4.9,0,8.5,0.3,10.9,0.8c2.4,0.5,4.2,1.4,5.4,2.7c0.9,0.9,1.5,1.9,1.9,3.1c0.4,1.2,0.6,2.8,0.7,4.7h-5.1
			c-0.1-2.9-1-4.8-2.8-5.7c-1.8-0.9-5.5-1.4-11.1-1.4c-5.5,0-9.1,0.6-10.8,1.7c-1.1,0.7-1.9,1.9-2.4,3.5c-0.5,1.6-0.8,3.8-0.8,6.6
			c0,2.7,0.3,4.8,0.9,6.3c0.6,1.5,1.6,2.6,2.9,3.3c1.8,0.9,5.8,1.4,12.1,1.4c5,0,8.2-0.5,9.8-1.4C369.1,161.8,370,159.9,370.1,156.9
			z"/>
		<path class="st3" d="M383.8,129.9h4.8v7.6H410v4.1h-21.4v13.3c0,2.9,0.1,4.7,0.2,5.3c0.1,0.6,0.4,1.3,0.9,1.9
			c0.6,0.8,1.5,1.3,2.7,1.6s3,0.5,5.3,0.5c2.2,0,3.7-0.1,4.7-0.4s1.8-0.8,2.3-1.6c0.4-0.6,0.6-1.2,0.7-2c0.1-0.8,0.2-2.1,0.2-3.9
			v-1.9h4.8v1.9c0,2.3-0.1,4.1-0.3,5.3c-0.2,1.2-0.6,2.3-1.3,3.2c-0.9,1.3-2.2,2.3-4,2.9c-1.8,0.6-4.3,0.9-7.5,0.9
			c-3.3,0-5.9-0.3-7.7-0.8c-1.9-0.5-3.2-1.4-4.1-2.6c-0.7-0.9-1.1-1.9-1.4-3.1c-0.2-1.2-0.4-3-0.4-5.4v-14.9h-7.5v-4.1h7.5
			L383.8,129.9L383.8,129.9z"/>
	</g>
</g>
<polygon class="st4" points="113.2,140.6 113.2,161.5 131.2,171.9 131.2,151.1 "/>
<polygon class="st5" points="149.3,161.5 149.3,161.5 149.3,140.6 131.2,151.1 131.2,151.1 131.2,171.9 "/>
<polygon class="st6" points="131.2,130.2 113.2,140.6 131.2,151.1 149.3,140.6 "/>
<path class="st7" d="M131.2,151.1L131.2,151.1L131.2,151.1z"/>
</svg>
