<?xml version="1.0" encoding="utf-8"?>
<!-- Generator: Adobe Illustrator 16.0.0, SVG Export Plug-In . SVG Version: 6.00 Build 0)  -->
<!DOCTYPE svg PUBLIC "-//W3C//DTD SVG 1.1//EN" "http://www.w3.org/Graphics/SVG/1.1/DTD/svg11.dtd">
<svg version="1.1" id="Capa_1" xmlns="http://www.w3.org/2000/svg"  x="0px" y="0px"
	 width="374.406px" height="111.872px" viewBox="0 0 374.406 111.872" enable-background="new 0 0 374.406 111.872"
	 xml:space="preserve">
<polygon fill="#C9CDCB" points="94.249,0 45.807,27.968 67.262,40.356 94.249,24.775 121.235,40.356 142.689,27.968 "/>
<polygon fill="#A0A8A8" points="67.262,71.516 67.262,40.356 45.807,27.968 45.807,83.905 94.249,111.872 94.249,87.098 "/>
<polygon fill="#8E9494" points="94.249,87.098 94.249,111.872 142.689,83.905 121.235,71.516 "/>
<g>
	<g>
		<path fill="#FFFFFF" d="M2.413,40.988h4.825v15.473c0,2.853,0.15,4.896,0.45,6.128c0.3,1.233,0.89,2.236,1.77,3.008
			c0.879,0.751,2.096,1.282,3.651,1.593c1.555,0.311,3.748,0.466,6.578,0.466c3.667,0,6.514-0.278,8.541-0.836
			c2.027-0.558,3.555-1.479,4.584-2.767c0.644-0.772,1.088-1.742,1.335-2.911c0.246-1.169,0.37-2.857,0.37-5.067V40.988h4.825
			v30.528h-4.825v-4.567h-0.29c-1.223,1.951-2.853,3.265-4.89,3.94c-2.038,0.675-5.437,1.013-10.197,1.013
			c-3.731,0-6.659-0.225-8.782-0.675c-2.123-0.451-3.785-1.201-4.986-2.252c-1.094-0.943-1.861-2.241-2.3-3.893
			s-0.659-4.053-0.659-7.205V40.988z"/>
	</g>
</g>
<g>
	<g>
		<path fill="#FFFFFF" d="M154.475,41.929c4.804,0,8.348,0.145,10.631,0.435c2.284,0.289,4.069,0.82,5.356,1.592
			c1.93,1.158,3.324,2.805,4.182,4.938c0.857,2.135,1.287,5.034,1.287,8.702c0,4.074-0.515,7.174-1.544,9.297
			c-0.751,1.607-1.753,2.863-3.008,3.764s-2.901,1.555-4.938,1.961c-1.973,0.408-5.254,0.611-9.843,0.611
			c-4.332,0-7.603-0.145-9.811-0.434c-2.209-0.289-4-0.809-5.372-1.561c-2.038-1.094-3.496-2.707-4.375-4.84
			c-0.88-2.135-1.319-5.121-1.319-8.959c0-4.29,0.632-7.539,1.897-9.748c1.287-2.272,3.067-3.796,5.34-4.567
			C145.232,42.347,149.071,41.95,154.475,41.929z M155.247,46.175c-3.195,0-5.608,0.118-7.238,0.354
			c-1.63,0.236-2.927,0.665-3.892,1.287c-1.137,0.729-1.962,1.882-2.477,3.458s-0.772,3.727-0.772,6.45
			c0,3.088,0.343,5.398,1.029,6.932c0.686,1.533,1.866,2.621,3.539,3.266c1.844,0.707,5.437,1.061,10.776,1.061
			c3.474,0,6.031-0.129,7.672-0.385c1.641-0.258,2.943-0.74,3.908-1.447c1.072-0.752,1.839-1.877,2.3-3.379
			c0.461-1.5,0.691-3.613,0.691-6.336c0-3.217-0.365-5.577-1.094-7.078c-0.815-1.673-2.171-2.787-4.069-3.346
			C163.724,46.454,160.266,46.175,155.247,46.175z"/>
		<path fill="#FFFFFF" d="M180.531,42.314h4.825v4.601h0.354c1.029-1.951,2.6-3.271,4.712-3.957
			c2.112-0.687,5.678-1.029,10.696-1.029c4.375,0,7.619,0.241,9.73,0.724s3.77,1.356,4.971,2.622
			c0.943,1.008,1.602,2.268,1.979,3.779c0.375,1.512,0.563,3.694,0.563,6.546v17.243h-4.826V57.659c0-2.723-0.111-4.68-0.338-5.871
			c-0.225-1.19-0.68-2.192-1.367-3.008c-0.814-0.943-2.063-1.613-3.746-2.011c-1.684-0.396-4.198-0.595-7.544-0.595
			c-3.731,0-6.638,0.273-8.717,0.82c-2.081,0.547-3.646,1.442-4.697,2.686c-0.729,0.901-1.206,1.914-1.431,3.04
			s-0.338,3.126-0.338,5.999v14.123h-4.825V42.314z"/>
		<path fill="#FFFFFF" d="M228.042,34.755h4.825v7.56h21.359v4.117h-21.359v13.254c0.043,2.895,0.118,4.664,0.226,5.307
			c0.107,0.645,0.418,1.287,0.933,1.93c0.601,0.752,1.501,1.283,2.702,1.594s2.96,0.465,5.275,0.465
			c2.166,0,3.742-0.148,4.729-0.449s1.759-0.848,2.316-1.641c0.364-0.559,0.605-1.223,0.724-1.994
			c0.118-0.773,0.177-2.08,0.177-3.926v-1.93h4.793v1.93c0,2.338-0.112,4.113-0.338,5.324c-0.225,1.213-0.648,2.279-1.271,3.201
			c-0.9,1.33-2.241,2.283-4.021,2.863c-1.78,0.578-4.278,0.867-7.495,0.867c-3.303,0-5.882-0.268-7.736-0.803
			c-1.855-0.537-3.233-1.416-4.134-2.639c-0.665-0.9-1.115-1.939-1.351-3.119c-0.236-1.18-0.354-2.971-0.354-5.373V46.432h-7.495
			v-4.117h7.495V34.755z"/>
		<path fill="#FFFFFF" d="M264.232,51.482h-5.018c-0.044-0.558-0.064-0.997-0.064-1.319c0-3.194,1.2-5.371,3.603-6.529
			c2.401-1.158,6.905-1.737,13.511-1.737c5.189,0,8.921,0.236,11.194,0.708c2.272,0.472,4.053,1.372,5.34,2.702
			c1.071,1.072,1.769,2.337,2.091,3.795c0.321,1.459,0.482,4.011,0.482,7.657v16.084h-4.793l0.097-3.57h-0.258
			c-1.201,1.672-2.644,2.75-4.326,3.232c-1.684,0.482-4.863,0.723-9.538,0.723c-5.34,0-9.05-0.127-11.13-0.385
			s-3.656-0.793-4.729-1.609c-1.073-0.771-1.817-1.693-2.236-2.766c-0.418-1.072-0.627-2.574-0.627-4.504
			c0-2.359,0.316-4.17,0.949-5.436c0.632-1.266,1.699-2.209,3.2-2.832c1.63-0.708,5.437-1.062,11.42-1.062
			c6.262,0,10.358,0.188,12.288,0.563s3.42,1.281,4.472,2.718h0.418v-3.282c0-2.681-0.482-4.61-1.447-5.79
			c-0.858-1.051-2.161-1.764-3.909-2.14c-1.748-0.374-4.605-0.563-8.572-0.563c-5.211,0-8.584,0.306-10.117,0.917
			s-2.3,1.946-2.3,4.005C264.232,51.172,264.232,51.312,264.232,51.482z M276.584,58.913c-3.968,0-6.745,0.07-8.331,0.209
			c-1.588,0.141-2.714,0.402-3.378,0.789c-1.266,0.75-1.897,2.135-1.897,4.148c0,1.996,0.75,3.346,2.251,4.055
			c1.223,0.578,5.34,0.867,12.353,0.867c5.125,0,8.514-0.332,10.165-0.996s2.477-2.016,2.477-4.053c0-1.973-0.922-3.303-2.766-3.99
			C285.613,59.256,281.989,58.913,276.584,58.913z"/>
		<path fill="#FFFFFF" d="M333.071,61.809h4.922c-0.064,3.709-0.912,6.412-2.542,8.105c-1.18,1.244-2.771,2.107-4.776,2.59
			c-2.006,0.482-4.981,0.723-8.927,0.723c-5.275,0-9.179-0.191-11.709-0.578s-4.472-1.082-5.822-2.092
			c-2.981-2.252-4.472-6.551-4.472-12.898c0-4.482,0.644-7.849,1.931-10.101c1.265-2.188,3.088-3.672,5.468-4.455
			c2.381-0.782,6.284-1.174,11.71-1.174c4.889,0,8.524,0.252,10.904,0.756c2.381,0.504,4.192,1.389,5.437,2.654
			c0.879,0.9,1.517,1.945,1.914,3.136c0.396,1.19,0.638,2.772,0.724,4.745h-5.051c-0.063-2.874-1.002-4.766-2.814-5.678
			c-1.813-0.911-5.517-1.367-11.113-1.367c-5.49,0-9.083,0.558-10.776,1.673c-1.115,0.729-1.926,1.903-2.429,3.522
			c-0.504,1.619-0.756,3.833-0.756,6.642c0,2.66,0.306,4.756,0.916,6.289c0.611,1.533,1.571,2.633,2.88,3.297
			c1.801,0.922,5.843,1.383,12.127,1.383c4.954,0,8.208-0.455,9.763-1.367C332.132,66.704,332.963,64.768,333.071,61.809z"/>
		<path fill="#FFFFFF" d="M346.838,34.755h4.825v7.56h21.359v4.117h-21.359v13.254c0.043,2.895,0.118,4.664,0.226,5.307
			c0.107,0.645,0.418,1.287,0.933,1.93c0.601,0.752,1.501,1.283,2.702,1.594s2.96,0.465,5.275,0.465
			c2.166,0,3.742-0.148,4.729-0.449s1.759-0.848,2.316-1.641c0.364-0.559,0.605-1.223,0.724-1.994
			c0.118-0.773,0.177-2.08,0.177-3.926v-1.93h4.793v1.93c0,2.338-0.112,4.113-0.338,5.324c-0.225,1.213-0.648,2.279-1.271,3.201
			c-0.9,1.33-2.241,2.283-4.021,2.863c-1.78,0.578-4.278,0.867-7.495,0.867c-3.303,0-5.882-0.268-7.736-0.803
			c-1.855-0.537-3.233-1.416-4.134-2.639c-0.665-0.9-1.115-1.939-1.351-3.119c-0.236-1.18-0.354-2.971-0.354-5.373V46.432h-7.495
			v-4.117h7.495V34.755z"/>
	</g>
</g>
<polygon fill="#B65151" points="76.185,45.507 76.185,66.366 94.248,76.795 94.249,55.938 "/>
<polygon fill="#9B4A4A" points="112.313,66.366 112.312,66.366 112.312,45.507 94.248,55.938 94.249,55.938 94.248,76.795 "/>
<polygon fill="#CB6769" points="94.248,35.076 76.185,45.507 94.249,55.938 112.313,45.507 "/>
<polygon fill="#FFFFFF" stroke="#000000" stroke-miterlimit="10" points="94.249,55.938 94.249,55.938 94.249,55.938 "/>
</svg>
